<mxfile host="app.diagrams.net" modified="2024-06-25T03:25:35.096Z" agent="Mozilla/5.0 (Windows NT 10.0; Win64; x64) AppleWebKit/537.36 (KHTML, like Gecko) Chrome/126.0.0.0 Safari/537.36" version="24.6.2" etag="7mcgqVtelr_15jLxg3pu" type="github">
  <diagram name="第 1 页" id="3tcS9aouvob8zf6FtTqc">
    <mxGraphModel>
      <root>
        <mxCell id="0" />
        <mxCell id="1" parent="0" />
      </root>
    </mxGraphModel>
  </diagram>
</mxfile>
